<svg width="141" height="351" viewBox="0 0 141 351" fill="none" xmlns="http://www.w3.org/2000/svg">
<path d="M86.327 21.448C86.6204 20.8826 86.8364 20.2986 86.975 19.696C87.119 19.088 87.191 18.4693 87.191 17.84C87.191 17.2 87.1217 16.5706 86.983 15.952C86.8444 15.3333 86.6284 14.7333 86.335 14.152H87.271C87.607 14.7013 87.8657 15.2826 88.047 15.896C88.2337 16.5093 88.327 17.1306 88.327 17.76C88.327 18.0586 88.3057 18.3733 88.263 18.704C88.2204 19.0293 88.1537 19.3546 88.063 19.68C87.9777 20 87.8684 20.312 87.735 20.616C87.6017 20.92 87.447 21.1973 87.271 21.448H86.327Z" fill="black"/>
<path d="M82.0648 15.864H83.1448V16.44H83.1688C83.3128 16.2 83.4995 16.0266 83.7288 15.92C83.9582 15.808 84.1928 15.752 84.4328 15.752C84.7368 15.752 84.9848 15.7946 85.1768 15.88C85.3742 15.96 85.5288 16.0746 85.6408 16.224C85.7528 16.368 85.8302 16.5466 85.8728 16.76C85.9208 16.968 85.9448 17.2 85.9448 17.456V20H84.8088V17.664C84.8088 17.3226 84.7555 17.0693 84.6488 16.904C84.5422 16.7333 84.3528 16.648 84.0808 16.648C83.7715 16.648 83.5475 16.7413 83.4088 16.928C83.2702 17.1093 83.2008 17.4106 83.2008 17.832V20H82.0648V15.864Z" fill="black"/>
<path d="M81.1704 15.224H80.0344V14.288H81.1704V15.224ZM80.0344 15.864H81.1704V20H80.0344V15.864Z" fill="black"/>
<path d="M75.3607 17.136C75.3767 16.8693 75.4433 16.648 75.5607 16.472C75.678 16.296 75.8273 16.1546 76.0087 16.048C76.19 15.9413 76.3927 15.8666 76.6167 15.824C76.846 15.776 77.0753 15.752 77.3047 15.752C77.5127 15.752 77.7233 15.768 77.9367 15.8C78.15 15.8266 78.3447 15.8826 78.5207 15.968C78.6967 16.0533 78.8407 16.1733 78.9527 16.328C79.0647 16.4773 79.1207 16.6773 79.1207 16.928V19.08C79.1207 19.2666 79.1313 19.4453 79.1527 19.616C79.174 19.7866 79.2113 19.9146 79.2647 20H78.1127C78.0913 19.936 78.0727 19.872 78.0567 19.808C78.046 19.7386 78.038 19.6693 78.0327 19.6C77.8513 19.7866 77.638 19.9173 77.3927 19.992C77.1473 20.0666 76.8967 20.104 76.6407 20.104C76.4433 20.104 76.2593 20.08 76.0887 20.032C75.918 19.984 75.7687 19.9093 75.6407 19.808C75.5127 19.7066 75.4113 19.5786 75.3367 19.424C75.2673 19.2693 75.2327 19.0853 75.2327 18.872C75.2327 18.6373 75.2727 18.4453 75.3527 18.296C75.438 18.1413 75.5447 18.0186 75.6727 17.928C75.806 17.8373 75.9553 17.7706 76.1207 17.728C76.2913 17.68 76.462 17.6426 76.6327 17.616C76.8033 17.5893 76.9713 17.568 77.1367 17.552C77.302 17.536 77.4487 17.512 77.5767 17.48C77.7047 17.448 77.806 17.4026 77.8807 17.344C77.9553 17.28 77.99 17.1893 77.9847 17.072C77.9847 16.9493 77.9633 16.8533 77.9207 16.784C77.8833 16.7093 77.83 16.6533 77.7607 16.616C77.6967 16.5733 77.6193 16.5466 77.5287 16.536C77.4433 16.52 77.35 16.512 77.2487 16.512C77.0247 16.512 76.8487 16.56 76.7207 16.656C76.5927 16.752 76.518 16.912 76.4967 17.136H75.3607ZM77.9847 17.976C77.9367 18.0186 77.8753 18.0533 77.8007 18.08C77.7313 18.1013 77.654 18.12 77.5687 18.136C77.4887 18.152 77.4033 18.1653 77.3127 18.176C77.222 18.1866 77.1313 18.2 77.0407 18.216C76.9553 18.232 76.87 18.2533 76.7847 18.28C76.7047 18.3066 76.6327 18.344 76.5687 18.392C76.51 18.4346 76.462 18.4906 76.4247 18.56C76.3873 18.6293 76.3687 18.7173 76.3687 18.824C76.3687 18.9253 76.3873 19.0106 76.4247 19.08C76.462 19.1493 76.5127 19.2053 76.5767 19.248C76.6407 19.2853 76.7153 19.312 76.8007 19.328C76.886 19.344 76.974 19.352 77.0647 19.352C77.2887 19.352 77.462 19.3146 77.5847 19.24C77.7073 19.1653 77.798 19.0773 77.8567 18.976C77.9153 18.8693 77.95 18.7626 77.9607 18.656C77.9767 18.5493 77.9847 18.464 77.9847 18.4V17.976Z" fill="black"/>
<path d="M68.1907 15.864H69.2627V16.424H69.2787C69.428 16.2106 69.6067 16.0453 69.8147 15.928C70.028 15.8106 70.2707 15.752 70.5427 15.752C70.804 15.752 71.0413 15.8026 71.2547 15.904C71.4733 16.0053 71.6387 16.184 71.7507 16.44C71.8733 16.2586 72.0387 16.0986 72.2467 15.96C72.46 15.8213 72.7107 15.752 72.9987 15.752C73.2173 15.752 73.42 15.7786 73.6067 15.832C73.7933 15.8853 73.9533 15.9706 74.0867 16.088C74.22 16.2053 74.324 16.36 74.3987 16.552C74.4733 16.7386 74.5107 16.9653 74.5107 17.232V20H73.3747V17.656C73.3747 17.5173 73.3693 17.3866 73.3587 17.264C73.348 17.1413 73.3187 17.0346 73.2707 16.944C73.2227 16.8533 73.1507 16.7813 73.0547 16.728C72.964 16.6746 72.8387 16.648 72.6787 16.648C72.5187 16.648 72.388 16.68 72.2867 16.744C72.1907 16.8026 72.1133 16.8826 72.0547 16.984C72.0013 17.08 71.964 17.192 71.9427 17.32C71.9267 17.4426 71.9187 17.568 71.9187 17.696V20H70.7827V17.68C70.7827 17.5573 70.78 17.4373 70.7747 17.32C70.7693 17.1973 70.7453 17.0853 70.7027 16.984C70.6653 16.8826 70.5987 16.8026 70.5027 16.744C70.412 16.68 70.276 16.648 70.0947 16.648C70.0413 16.648 69.9693 16.6613 69.8787 16.688C69.7933 16.7093 69.708 16.7546 69.6227 16.824C69.5427 16.888 69.4733 16.984 69.4147 17.112C69.356 17.2346 69.3267 17.3973 69.3267 17.6V20H68.1907V15.864Z" fill="black"/>
<path d="M64.276 17.936C64.276 18.1013 64.292 18.264 64.324 18.424C64.356 18.5786 64.4093 18.72 64.484 18.848C64.564 18.9706 64.668 19.0693 64.796 19.144C64.924 19.2186 65.084 19.256 65.276 19.256C65.468 19.256 65.628 19.2186 65.756 19.144C65.8893 19.0693 65.9933 18.9706 66.068 18.848C66.148 18.72 66.204 18.5786 66.236 18.424C66.268 18.264 66.284 18.1013 66.284 17.936C66.284 17.7706 66.268 17.608 66.236 17.448C66.204 17.288 66.148 17.1466 66.068 17.024C65.9933 16.9013 65.8893 16.8026 65.756 16.728C65.628 16.648 65.468 16.608 65.276 16.608C65.084 16.608 64.924 16.648 64.796 16.728C64.668 16.8026 64.564 16.9013 64.484 17.024C64.4093 17.1466 64.356 17.288 64.324 17.448C64.292 17.608 64.276 17.7706 64.276 17.936ZM63.14 17.936C63.14 17.6053 63.1907 17.3066 63.292 17.04C63.3933 16.768 63.5373 16.5386 63.724 16.352C63.9107 16.16 64.1347 16.0133 64.396 15.912C64.6573 15.8053 64.9507 15.752 65.276 15.752C65.6013 15.752 65.8947 15.8053 66.156 15.912C66.4227 16.0133 66.6493 16.16 66.836 16.352C67.0227 16.5386 67.1667 16.768 67.268 17.04C67.3693 17.3066 67.42 17.6053 67.42 17.936C67.42 18.2666 67.3693 18.5653 67.268 18.832C67.1667 19.0986 67.0227 19.328 66.836 19.52C66.6493 19.7066 66.4227 19.8506 66.156 19.952C65.8947 20.0533 65.6013 20.104 65.276 20.104C64.9507 20.104 64.6573 20.0533 64.396 19.952C64.1347 19.8506 63.9107 19.7066 63.724 19.52C63.5373 19.328 63.3933 19.0986 63.292 18.832C63.1907 18.5653 63.14 18.2666 63.14 17.936Z" fill="black"/>
<path d="M58.7142 18.944H59.8343C60.0156 18.944 60.1916 18.9146 60.3623 18.856C60.5329 18.7973 60.6849 18.7013 60.8182 18.568C60.9516 18.4293 61.0583 18.2506 61.1383 18.032C61.2183 17.8133 61.2583 17.5466 61.2583 17.232C61.2583 16.944 61.2289 16.6853 61.1702 16.456C61.1169 16.2213 61.0263 16.0213 60.8983 15.856C60.7703 15.6906 60.5996 15.5653 60.3862 15.48C60.1782 15.3893 59.9196 15.344 59.6102 15.344H58.7142V18.944ZM57.4583 14.288H59.9222C60.2902 14.288 60.6316 14.3466 60.9463 14.464C61.2663 14.5813 61.5409 14.7573 61.7702 14.992C62.0049 15.2266 62.1863 15.52 62.3143 15.872C62.4476 16.224 62.5143 16.6373 62.5143 17.112C62.5143 17.528 62.4609 17.912 62.3543 18.264C62.2476 18.616 62.0849 18.92 61.8662 19.176C61.6529 19.432 61.3836 19.6346 61.0583 19.784C60.7383 19.928 60.3596 20 59.9222 20H57.4583V14.288Z" fill="black"/>
<path d="M53.0813 14.288H54.2173V20H53.0813V14.288Z" fill="black"/>
<path d="M51.2395 17.488C51.1862 17.2 51.0902 16.9813 50.9515 16.832C50.8182 16.6826 50.6128 16.608 50.3355 16.608C50.1542 16.608 50.0022 16.64 49.8795 16.704C49.7622 16.7626 49.6662 16.8373 49.5915 16.928C49.5222 17.0186 49.4715 17.1146 49.4395 17.216C49.4128 17.3173 49.3968 17.408 49.3915 17.488H51.2395ZM49.3915 18.208C49.4075 18.576 49.5008 18.8426 49.6715 19.008C49.8422 19.1733 50.0875 19.256 50.4075 19.256C50.6368 19.256 50.8342 19.2 50.9995 19.088C51.1648 18.9706 51.2662 18.848 51.3035 18.72H52.3035C52.1435 19.216 51.8982 19.5706 51.5675 19.784C51.2368 19.9973 50.8368 20.104 50.3675 20.104C50.0422 20.104 49.7488 20.0533 49.4875 19.952C49.2262 19.8453 49.0048 19.696 48.8235 19.504C48.6422 19.312 48.5008 19.0826 48.3995 18.816C48.3035 18.5493 48.2555 18.256 48.2555 17.936C48.2555 17.6266 48.3062 17.3386 48.4075 17.072C48.5088 16.8053 48.6528 16.576 48.8395 16.384C49.0262 16.1866 49.2475 16.032 49.5035 15.92C49.7648 15.808 50.0528 15.752 50.3675 15.752C50.7195 15.752 51.0262 15.8213 51.2875 15.96C51.5488 16.0933 51.7622 16.2746 51.9275 16.504C52.0982 16.7333 52.2208 16.9946 52.2955 17.288C52.3702 17.5813 52.3968 17.888 52.3755 18.208H49.3915Z" fill="black"/>
<path d="M46.5872 20H45.3232L43.9072 15.864H45.0992L45.9712 18.688H45.9872L46.8592 15.864H47.9872L46.5872 20Z" fill="black"/>
<path d="M42.4895 17.488C42.4362 17.2 42.3402 16.9813 42.2015 16.832C42.0682 16.6826 41.8628 16.608 41.5855 16.608C41.4042 16.608 41.2522 16.64 41.1295 16.704C41.0122 16.7626 40.9162 16.8373 40.8415 16.928C40.7722 17.0186 40.7215 17.1146 40.6895 17.216C40.6628 17.3173 40.6468 17.408 40.6415 17.488H42.4895ZM40.6415 18.208C40.6575 18.576 40.7508 18.8426 40.9215 19.008C41.0922 19.1733 41.3375 19.256 41.6575 19.256C41.8868 19.256 42.0842 19.2 42.2495 19.088C42.4148 18.9706 42.5162 18.848 42.5535 18.72H43.5535C43.3935 19.216 43.1482 19.5706 42.8175 19.784C42.4868 19.9973 42.0868 20.104 41.6175 20.104C41.2922 20.104 40.9988 20.0533 40.7375 19.952C40.4762 19.8453 40.2548 19.696 40.0735 19.504C39.8922 19.312 39.7508 19.0826 39.6495 18.816C39.5535 18.5493 39.5055 18.256 39.5055 17.936C39.5055 17.6266 39.5562 17.3386 39.6575 17.072C39.7588 16.8053 39.9028 16.576 40.0895 16.384C40.2762 16.1866 40.4975 16.032 40.7535 15.92C41.0148 15.808 41.3028 15.752 41.6175 15.752C41.9695 15.752 42.2762 15.8213 42.5375 15.96C42.7988 16.0933 43.0122 16.2746 43.1775 16.504C43.3482 16.7333 43.4708 16.9946 43.5455 17.288C43.6202 17.5813 43.6468 17.888 43.6255 18.208H40.6415Z" fill="black"/>
<path d="M35.0833 14.288H36.3392V18.944H39.1232V20H35.0833V14.288Z" fill="black"/>
<path d="M31.6975 17.328H34.1055V18.304H31.6975V17.328Z" fill="black"/>
<path d="M29.7509 17.92C29.7509 17.7493 29.7349 17.5866 29.7029 17.432C29.6709 17.272 29.6149 17.1333 29.5349 17.016C29.4602 16.8933 29.3616 16.7946 29.2389 16.72C29.1162 16.6453 28.9616 16.608 28.7749 16.608C28.5882 16.608 28.4309 16.6453 28.3029 16.72C28.1749 16.7946 28.0709 16.8933 27.9909 17.016C27.9162 17.1386 27.8602 17.28 27.8229 17.44C27.7909 17.5946 27.7749 17.7573 27.7749 17.928C27.7749 18.088 27.7936 18.248 27.8309 18.408C27.8682 18.568 27.9269 18.712 28.0069 18.84C28.0922 18.9626 28.1962 19.064 28.3189 19.144C28.4469 19.2186 28.5989 19.256 28.7749 19.256C28.9616 19.256 29.1162 19.2186 29.2389 19.144C29.3669 19.0693 29.4682 18.9706 29.5429 18.848C29.6176 18.72 29.6709 18.576 29.7029 18.416C29.7349 18.256 29.7509 18.0906 29.7509 17.92ZM29.7669 19.472H29.7509C29.6176 19.696 29.4416 19.8586 29.2229 19.96C29.0096 20.056 28.7669 20.104 28.4949 20.104C28.1856 20.104 27.9136 20.0453 27.6789 19.928C27.4442 19.8053 27.2496 19.6426 27.0949 19.44C26.9456 19.232 26.8309 18.9946 26.7509 18.728C26.6762 18.4613 26.6389 18.184 26.6389 17.896C26.6389 17.6186 26.6762 17.352 26.7509 17.096C26.8309 16.8346 26.9456 16.6053 27.0949 16.408C27.2496 16.2106 27.4416 16.0533 27.6709 15.936C27.9002 15.8133 28.1669 15.752 28.4709 15.752C28.7162 15.752 28.9482 15.8053 29.1669 15.912C29.3909 16.0133 29.5669 16.1653 29.6949 16.368H29.7109V14.288H30.8469V20H29.7669V19.472Z" fill="black"/>
<path d="M22.0726 15.864H23.1526V16.44H23.1766C23.3206 16.2 23.5073 16.0266 23.7366 15.92C23.966 15.808 24.2006 15.752 24.4406 15.752C24.7446 15.752 24.9926 15.7946 25.1846 15.88C25.382 15.96 25.5366 16.0746 25.6486 16.224C25.7606 16.368 25.838 16.5466 25.8806 16.76C25.9286 16.968 25.9526 17.2 25.9526 17.456V20H24.8166V17.664C24.8166 17.3226 24.7633 17.0693 24.6566 16.904C24.55 16.7333 24.3606 16.648 24.0886 16.648C23.7793 16.648 23.5553 16.7413 23.4166 16.928C23.278 17.1093 23.2086 17.4106 23.2086 17.832V20H22.0726V15.864Z" fill="black"/>
<path d="M18.1901 17.936C18.1901 18.1013 18.2061 18.264 18.2381 18.424C18.2701 18.5786 18.3234 18.72 18.3981 18.848C18.4781 18.9706 18.5821 19.0693 18.7101 19.144C18.8381 19.2186 18.9981 19.256 19.1901 19.256C19.3821 19.256 19.5421 19.2186 19.6701 19.144C19.8034 19.0693 19.9074 18.9706 19.9821 18.848C20.0621 18.72 20.1181 18.5786 20.1501 18.424C20.1821 18.264 20.1981 18.1013 20.1981 17.936C20.1981 17.7706 20.1821 17.608 20.1501 17.448C20.1181 17.288 20.0621 17.1466 19.9821 17.024C19.9074 16.9013 19.8034 16.8026 19.6701 16.728C19.5421 16.648 19.3821 16.608 19.1901 16.608C18.9981 16.608 18.8381 16.648 18.7101 16.728C18.5821 16.8026 18.4781 16.9013 18.3981 17.024C18.3234 17.1466 18.2701 17.288 18.2381 17.448C18.2061 17.608 18.1901 17.7706 18.1901 17.936ZM17.0541 17.936C17.0541 17.6053 17.1047 17.3066 17.2061 17.04C17.3074 16.768 17.4514 16.5386 17.6381 16.352C17.8247 16.16 18.0487 16.0133 18.3101 15.912C18.5714 15.8053 18.8647 15.752 19.1901 15.752C19.5154 15.752 19.8087 15.8053 20.0701 15.912C20.3367 16.0133 20.5634 16.16 20.7501 16.352C20.9367 16.5386 21.0807 16.768 21.1821 17.04C21.2834 17.3066 21.3341 17.6053 21.3341 17.936C21.3341 18.2666 21.2834 18.5653 21.1821 18.832C21.0807 19.0986 20.9367 19.328 20.7501 19.52C20.5634 19.7066 20.3367 19.8506 20.0701 19.952C19.8087 20.0533 19.5154 20.104 19.1901 20.104C18.8647 20.104 18.5714 20.0533 18.3101 19.952C18.0487 19.8506 17.8247 19.7066 17.6381 19.52C17.4514 19.328 17.3074 19.0986 17.2061 18.832C17.1047 18.5653 17.0541 18.2666 17.0541 17.936Z" fill="black"/>
<path d="M15.4043 17.32C15.3297 16.8453 15.0497 16.608 14.5643 16.608C14.383 16.608 14.231 16.6506 14.1083 16.736C13.9857 16.816 13.8843 16.9226 13.8043 17.056C13.7297 17.184 13.6763 17.328 13.6443 17.488C13.6123 17.6426 13.5963 17.7973 13.5963 17.952C13.5963 18.1013 13.6123 18.2533 13.6443 18.408C13.6763 18.5626 13.727 18.704 13.7963 18.832C13.871 18.9546 13.9697 19.056 14.0923 19.136C14.215 19.216 14.3643 19.256 14.5403 19.256C14.8123 19.256 15.0203 19.1813 15.1643 19.032C15.3137 18.8773 15.407 18.672 15.4443 18.416H16.5403C16.4657 18.9653 16.2523 19.384 15.9003 19.672C15.5483 19.96 15.0977 20.104 14.5483 20.104C14.239 20.104 13.9537 20.0533 13.6923 19.952C13.4363 19.8453 13.2177 19.6986 13.0363 19.512C12.855 19.3253 12.7137 19.104 12.6123 18.848C12.511 18.5866 12.4603 18.3013 12.4603 17.992C12.4603 17.672 12.5057 17.376 12.5963 17.104C12.6923 16.8266 12.831 16.5893 13.0123 16.392C13.1937 16.1893 13.415 16.032 13.6763 15.92C13.9377 15.808 14.2363 15.752 14.5723 15.752C14.8177 15.752 15.0523 15.784 15.2763 15.848C15.5057 15.912 15.7083 16.0106 15.8843 16.144C16.0657 16.272 16.2123 16.4346 16.3243 16.632C16.4363 16.824 16.5003 17.0533 16.5163 17.32H15.4043Z" fill="black"/>
<path d="M10.7786 17.488C10.7252 17.2 10.6292 16.9813 10.4906 16.832C10.3572 16.6826 10.1519 16.608 9.87456 16.608C9.69322 16.608 9.54122 16.64 9.41856 16.704C9.30122 16.7626 9.20522 16.8373 9.13056 16.928C9.06122 17.0186 9.01056 17.1146 8.97856 17.216C8.95189 17.3173 8.93589 17.408 8.93056 17.488H10.7786ZM8.93056 18.208C8.94656 18.576 9.03989 18.8426 9.21056 19.008C9.38122 19.1733 9.62656 19.256 9.94656 19.256C10.1759 19.256 10.3732 19.2 10.5386 19.088C10.7039 18.9706 10.8052 18.848 10.8426 18.72H11.8426C11.6826 19.216 11.4372 19.5706 11.1066 19.784C10.7759 19.9973 10.3759 20.104 9.90656 20.104C9.58122 20.104 9.28789 20.0533 9.02656 19.952C8.76522 19.8453 8.54389 19.696 8.36256 19.504C8.18122 19.312 8.03989 19.0826 7.93856 18.816C7.84256 18.5493 7.79456 18.256 7.79456 17.936C7.79456 17.6266 7.84522 17.3386 7.94656 17.072C8.04789 16.8053 8.19189 16.576 8.37856 16.384C8.56522 16.1866 8.78656 16.032 9.04256 15.92C9.30389 15.808 9.59189 15.752 9.90656 15.752C10.2586 15.752 10.5652 15.8213 10.8266 15.96C11.0879 16.0933 11.3012 16.2746 11.4666 16.504C11.6372 16.7333 11.7599 16.9946 11.8346 17.288C11.9092 17.5813 11.9359 17.888 11.9146 18.208H8.93056Z" fill="black"/>
<path d="M3.77527 18.104C3.77527 18.296 3.80993 18.4586 3.87927 18.592C3.9486 18.7253 4.03927 18.8346 4.15127 18.92C4.2686 19 4.4046 19.0613 4.55927 19.104C4.71393 19.1413 4.87393 19.16 5.03927 19.16C5.15127 19.16 5.27127 19.152 5.39927 19.136C5.52727 19.1146 5.64727 19.0773 5.75927 19.024C5.87127 18.9706 5.9646 18.8986 6.03927 18.808C6.11393 18.712 6.15127 18.592 6.15127 18.448C6.15127 18.2933 6.1006 18.168 5.99927 18.072C5.90327 17.976 5.77527 17.896 5.61527 17.832C5.45527 17.768 5.27393 17.712 5.07127 17.664C4.8686 17.616 4.66327 17.5626 4.45527 17.504C4.24193 17.4506 4.03393 17.3866 3.83127 17.312C3.6286 17.232 3.44727 17.1306 3.28727 17.008C3.12727 16.8853 2.9966 16.7333 2.89527 16.552C2.79927 16.3653 2.75127 16.1413 2.75127 15.88C2.75127 15.5866 2.8126 15.3333 2.93527 15.12C3.06327 14.9013 3.2286 14.72 3.43127 14.576C3.63393 14.432 3.86327 14.3253 4.11927 14.256C4.37527 14.1866 4.63127 14.152 4.88727 14.152C5.18593 14.152 5.47127 14.1866 5.74327 14.256C6.0206 14.32 6.26593 14.4266 6.47927 14.576C6.6926 14.7253 6.8606 14.9173 6.98327 15.152C7.11127 15.3813 7.17527 15.6613 7.17527 15.992H5.95927C5.9486 15.8213 5.91127 15.68 5.84727 15.568C5.7886 15.456 5.7086 15.368 5.60727 15.304C5.50593 15.24 5.3886 15.1946 5.25527 15.168C5.12727 15.1413 4.98593 15.128 4.83127 15.128C4.72993 15.128 4.6286 15.1386 4.52727 15.16C4.42593 15.1813 4.3326 15.2186 4.24727 15.272C4.16727 15.3253 4.1006 15.392 4.04727 15.472C3.99393 15.552 3.96727 15.6533 3.96727 15.776C3.96727 15.888 3.9886 15.9786 4.03127 16.048C4.07393 16.1173 4.1566 16.1813 4.27927 16.24C4.40727 16.2986 4.5806 16.3573 4.79927 16.416C5.02327 16.4746 5.31393 16.5493 5.67127 16.64C5.77793 16.6613 5.9246 16.7013 6.11127 16.76C6.30327 16.8133 6.4926 16.9013 6.67927 17.024C6.86593 17.1466 7.02593 17.312 7.15927 17.52C7.29793 17.7226 7.36727 17.984 7.36727 18.304C7.36727 18.5653 7.3166 18.808 7.21527 19.032C7.11393 19.256 6.96193 19.4506 6.75927 19.616C6.56193 19.776 6.31393 19.9013 6.01527 19.992C5.72193 20.0826 5.3806 20.128 4.99127 20.128C4.6766 20.128 4.36993 20.088 4.07127 20.008C3.77793 19.9333 3.5166 19.8133 3.28727 19.648C3.06327 19.4826 2.8846 19.272 2.75127 19.016C2.61793 18.76 2.55393 18.456 2.55927 18.104H3.77527Z" fill="black"/>
<path d="M2.42402 14.152C2.12002 14.7173 1.89868 15.3066 1.76002 15.92C1.62135 16.528 1.55202 17.1466 1.55202 17.776C1.55202 18.416 1.61868 19.0426 1.75202 19.656C1.89068 20.2693 2.11202 20.8666 2.41602 21.448H1.47202C1.13602 20.8986 0.874682 20.32 0.688016 19.712C0.506682 19.104 0.416016 18.4853 0.416016 17.856C0.416016 17.5573 0.437349 17.2453 0.480016 16.92C0.528016 16.5893 0.594682 16.2613 0.680016 15.936C0.770682 15.6106 0.880016 15.296 1.00802 14.992C1.14135 14.688 1.29602 14.408 1.47202 14.152H2.42402Z" fill="black"/>
<path d="M55.5138 0.859985H56.9338V4.68999L58.7238 2.82999H60.4038L58.4538 4.72999L60.6238 7.99999H58.9038L57.4838 5.68999L56.9338 6.21999V7.99999H55.5138V0.859985Z" fill="black"/>
<path d="M54.3061 7.99996H52.9561V7.27996H52.9261C52.7461 7.57996 52.5127 7.79662 52.2261 7.92996C51.9394 8.06329 51.6461 8.12996 51.3461 8.12996C50.9661 8.12996 50.6527 8.07996 50.4061 7.97996C50.1661 7.87996 49.9761 7.73996 49.8361 7.55996C49.6961 7.37329 49.5961 7.14996 49.5361 6.88996C49.4827 6.62329 49.4561 6.32996 49.4561 6.00996V2.82996H50.8761V5.74996C50.8761 6.17662 50.9427 6.49662 51.0761 6.70996C51.2094 6.91662 51.4461 7.01996 51.7861 7.01996C52.1727 7.01996 52.4527 6.90662 52.6261 6.67996C52.7994 6.44662 52.8861 6.06662 52.8861 5.53996V2.82996H54.3061V7.99996Z" fill="black"/>
<path d="M46.7329 6.45996H48.3029V7.99996H46.7329V6.45996Z" fill="black"/>
<path d="M45.0797 7.99996H43.4997L41.7297 2.82996H43.2197L44.3097 6.35996H44.3297L45.4197 2.82996H46.8297L45.0797 7.99996Z" fill="black"/>
<path d="M37.3664 5.41994C37.3664 5.62661 37.3864 5.82994 37.4264 6.02994C37.4664 6.22327 37.5331 6.39994 37.6264 6.55994C37.7264 6.71327 37.8564 6.83661 38.0164 6.92994C38.1764 7.02328 38.3764 7.06994 38.6164 7.06994C38.8564 7.06994 39.0564 7.02328 39.2164 6.92994C39.3831 6.83661 39.5131 6.71327 39.6064 6.55994C39.7064 6.39994 39.7764 6.22327 39.8164 6.02994C39.8564 5.82994 39.8764 5.62661 39.8764 5.41994C39.8764 5.21328 39.8564 5.00994 39.8164 4.80994C39.7764 4.60994 39.7064 4.43327 39.6064 4.27994C39.5131 4.12661 39.3831 4.00327 39.2164 3.90994C39.0564 3.80994 38.8564 3.75994 38.6164 3.75994C38.3764 3.75994 38.1764 3.80994 38.0164 3.90994C37.8564 4.00327 37.7264 4.12661 37.6264 4.27994C37.5331 4.43327 37.4664 4.60994 37.4264 4.80994C37.3864 5.00994 37.3664 5.21328 37.3664 5.41994ZM35.9464 5.41994C35.9464 5.00661 36.0097 4.63328 36.1364 4.29994C36.2631 3.95994 36.4431 3.67327 36.6764 3.43994C36.9097 3.19994 37.1897 3.01661 37.5164 2.88994C37.8431 2.75661 38.2097 2.68994 38.6164 2.68994C39.0231 2.68994 39.3897 2.75661 39.7164 2.88994C40.0497 3.01661 40.3331 3.19994 40.5664 3.43994C40.7997 3.67327 40.9797 3.95994 41.1064 4.29994C41.2331 4.63328 41.2964 5.00661 41.2964 5.41994C41.2964 5.83328 41.2331 6.20661 41.1064 6.53994C40.9797 6.87328 40.7997 7.15994 40.5664 7.39994C40.3331 7.63327 40.0497 7.81327 39.7164 7.93994C39.3897 8.06661 39.0231 8.12994 38.6164 8.12994C38.2097 8.12994 37.8431 8.06661 37.5164 7.93994C37.1897 7.81327 36.9097 7.63327 36.6764 7.39994C36.4431 7.15994 36.2631 6.87328 36.1364 6.53994C36.0097 6.20661 35.9464 5.83328 35.9464 5.41994Z" fill="black"/>
<path d="M32.4031 6.77994C32.6031 6.77994 32.7798 6.73994 32.9331 6.65994C33.0865 6.57994 33.2131 6.47328 33.3131 6.33994C33.4131 6.20661 33.4865 6.05661 33.5331 5.88994C33.5865 5.71661 33.6131 5.53661 33.6131 5.34994C33.6131 5.13661 33.5931 4.93661 33.5531 4.74994C33.5131 4.55661 33.4465 4.38661 33.3531 4.23994C33.2598 4.09327 33.1365 3.97661 32.9831 3.88994C32.8298 3.80327 32.6365 3.75994 32.4031 3.75994C32.2031 3.75994 32.0298 3.79994 31.8831 3.87994C31.7431 3.95994 31.6231 4.06994 31.5231 4.20994C31.4298 4.34328 31.3598 4.49994 31.3131 4.67994C31.2731 4.85327 31.2531 5.03661 31.2531 5.22994C31.2531 5.41661 31.2698 5.60328 31.3031 5.78994C31.3431 5.96994 31.4065 6.13327 31.4931 6.27994C31.5865 6.42661 31.7065 6.54661 31.8531 6.63994C31.9998 6.73328 32.1831 6.77994 32.4031 6.77994ZM34.9631 7.66994C34.9631 7.87661 34.9331 8.11328 34.8731 8.37994C34.8198 8.64661 34.6998 8.89328 34.5131 9.11994C34.3265 9.35328 34.0565 9.54994 33.7031 9.70994C33.3498 9.86994 32.8765 9.94994 32.2831 9.94994C32.0298 9.94994 31.7698 9.91661 31.5031 9.84994C31.2431 9.78994 31.0031 9.69328 30.7831 9.55994C30.5698 9.42661 30.3898 9.25328 30.2431 9.03994C30.1031 8.83328 30.0231 8.58328 30.0031 8.28994H31.4131C31.4798 8.55661 31.6098 8.73994 31.8031 8.83994C31.9965 8.94661 32.2198 8.99994 32.4731 8.99994C32.8731 8.99994 33.1631 8.87994 33.3431 8.63994C33.5298 8.39994 33.6198 8.09661 33.6131 7.72994V7.04994H33.5931C33.4398 7.32328 33.2198 7.52661 32.9331 7.65994C32.6531 7.78661 32.3565 7.84994 32.0431 7.84994C31.6565 7.84994 31.3231 7.78327 31.0431 7.64994C30.7631 7.50994 30.5331 7.32328 30.3531 7.08994C30.1731 6.84994 30.0398 6.57328 29.9531 6.25994C29.8731 5.93994 29.8331 5.60328 29.8331 5.24994C29.8331 4.91661 29.8798 4.59661 29.9731 4.28994C30.0731 3.97661 30.2165 3.70327 30.4031 3.46994C30.5898 3.22994 30.8198 3.03994 31.0931 2.89994C31.3731 2.75994 31.6931 2.68994 32.0531 2.68994C32.3931 2.68994 32.6898 2.75327 32.9431 2.87994C33.2031 3.00661 33.4198 3.21994 33.5931 3.51994H33.6131V2.82994H34.9631V7.66994Z" fill="black"/>
<path d="M24.4868 6.45996H26.0568V7.99996H24.4868V6.45996Z" fill="black"/>
<path d="M22.7391 7.99996H21.2791L20.3591 4.52996H20.3391L19.4591 7.99996H17.9891L16.3491 2.82996H17.8491L18.7991 6.33996H18.8191L19.6791 2.82996H21.0591L21.9391 6.32996H21.9591L22.9091 2.82996H24.3691L22.7391 7.99996Z" fill="black"/>
<path d="M14.5946 7.99996H13.1346L12.2146 4.52996H12.1946L11.3146 7.99996H9.84459L8.20459 2.82996H9.70459L10.6546 6.33996H10.6746L11.5346 2.82996H12.9146L13.7946 6.32996H13.8146L14.7646 2.82996H16.2246L14.5946 7.99996Z" fill="black"/>
<path d="M6.45006 7.99996H4.99006L4.07006 4.52996H4.05006L3.17006 7.99996H1.70006L0.0600586 2.82996H1.56006L2.51006 6.33996H2.53006L3.39006 2.82996H4.77006L5.65006 6.32996H5.67006L6.62006 2.82996H8.08006L6.45006 7.99996Z" fill="black"/>
<path d="M47.8036 350.448C48.0969 349.883 48.3129 349.299 48.4516 348.696C48.5956 348.088 48.6676 347.469 48.6676 346.84C48.6676 346.2 48.5983 345.571 48.4596 344.952C48.3209 344.333 48.1049 343.733 47.8116 343.152H48.7476C49.0836 343.701 49.3423 344.283 49.5236 344.896C49.7103 345.509 49.8036 346.131 49.8036 346.76C49.8036 347.059 49.7823 347.373 49.7396 347.704C49.6969 348.029 49.6303 348.355 49.5396 348.68C49.4543 349 49.3449 349.312 49.2116 349.616C49.0783 349.92 48.9236 350.197 48.7476 350.448H47.8036Z" fill="black"/>
<path d="M43.5414 344.864H44.6214V345.44H44.6454C44.7894 345.2 44.976 345.027 45.2054 344.92C45.4347 344.808 45.6694 344.752 45.9094 344.752C46.2134 344.752 46.4614 344.795 46.6534 344.88C46.8507 344.96 47.0054 345.075 47.1174 345.224C47.2294 345.368 47.3067 345.547 47.3494 345.76C47.3974 345.968 47.4214 346.2 47.4214 346.456V349H46.2854V346.664C46.2854 346.323 46.232 346.069 46.1254 345.904C46.0187 345.733 45.8294 345.648 45.5574 345.648C45.2481 345.648 45.0241 345.741 44.8854 345.928C44.7467 346.109 44.6774 346.411 44.6774 346.832V349H43.5414V344.864Z" fill="black"/>
<path d="M42.6469 344.224H41.5109V343.288H42.6469V344.224ZM41.5109 344.864H42.6469V349H41.5109V344.864Z" fill="black"/>
<path d="M36.8371 346.136C36.8531 345.869 36.9198 345.648 37.0371 345.472C37.1544 345.296 37.3038 345.155 37.4851 345.048C37.6664 344.941 37.8691 344.867 38.0931 344.824C38.3224 344.776 38.5518 344.752 38.7811 344.752C38.9891 344.752 39.1998 344.768 39.4131 344.8C39.6264 344.827 39.8211 344.883 39.9971 344.968C40.1731 345.053 40.3171 345.173 40.4291 345.328C40.5411 345.477 40.5971 345.677 40.5971 345.928V348.08C40.5971 348.267 40.6078 348.445 40.6291 348.616C40.6504 348.787 40.6878 348.915 40.7411 349H39.5891C39.5678 348.936 39.5491 348.872 39.5331 348.808C39.5224 348.739 39.5144 348.669 39.5091 348.6C39.3278 348.787 39.1144 348.917 38.8691 348.992C38.6238 349.067 38.3731 349.104 38.1171 349.104C37.9198 349.104 37.7358 349.08 37.5651 349.032C37.3944 348.984 37.2451 348.909 37.1171 348.808C36.9891 348.707 36.8878 348.579 36.8131 348.424C36.7438 348.269 36.7091 348.085 36.7091 347.872C36.7091 347.637 36.7491 347.445 36.8291 347.296C36.9144 347.141 37.0211 347.019 37.1491 346.928C37.2824 346.837 37.4318 346.771 37.5971 346.728C37.7678 346.68 37.9384 346.643 38.1091 346.616C38.2798 346.589 38.4478 346.568 38.6131 346.552C38.7784 346.536 38.9251 346.512 39.0531 346.48C39.1811 346.448 39.2824 346.403 39.3571 346.344C39.4318 346.28 39.4664 346.189 39.4611 346.072C39.4611 345.949 39.4398 345.853 39.3971 345.784C39.3598 345.709 39.3064 345.653 39.2371 345.616C39.1731 345.573 39.0958 345.547 39.0051 345.536C38.9198 345.52 38.8264 345.512 38.7251 345.512C38.5011 345.512 38.3251 345.56 38.1971 345.656C38.0691 345.752 37.9944 345.912 37.9731 346.136H36.8371ZM39.4611 346.976C39.4131 347.019 39.3518 347.053 39.2771 347.08C39.2078 347.101 39.1304 347.12 39.0451 347.136C38.9651 347.152 38.8798 347.165 38.7891 347.176C38.6984 347.187 38.6078 347.2 38.5171 347.216C38.4318 347.232 38.3464 347.253 38.2611 347.28C38.1811 347.307 38.1091 347.344 38.0451 347.392C37.9864 347.435 37.9384 347.491 37.9011 347.56C37.8638 347.629 37.8451 347.717 37.8451 347.824C37.8451 347.925 37.8638 348.011 37.9011 348.08C37.9384 348.149 37.9891 348.205 38.0531 348.248C38.1171 348.285 38.1918 348.312 38.2771 348.328C38.3624 348.344 38.4504 348.352 38.5411 348.352C38.7651 348.352 38.9384 348.315 39.0611 348.24C39.1838 348.165 39.2744 348.077 39.3331 347.976C39.3918 347.869 39.4264 347.763 39.4371 347.656C39.4531 347.549 39.4611 347.464 39.4611 347.4V346.976Z" fill="black"/>
<path d="M29.6671 344.864H30.7391V345.424H30.7551C30.9044 345.211 31.0831 345.045 31.2911 344.928C31.5044 344.811 31.7471 344.752 32.0191 344.752C32.2804 344.752 32.5178 344.803 32.7311 344.904C32.9498 345.005 33.1151 345.184 33.2271 345.44C33.3498 345.259 33.5151 345.099 33.7231 344.96C33.9364 344.821 34.1871 344.752 34.4751 344.752C34.6938 344.752 34.8964 344.779 35.0831 344.832C35.2698 344.885 35.4298 344.971 35.5631 345.088C35.6964 345.205 35.8004 345.36 35.8751 345.552C35.9498 345.739 35.9871 345.965 35.9871 346.232V349H34.8511V346.656C34.8511 346.517 34.8458 346.387 34.8351 346.264C34.8244 346.141 34.7951 346.035 34.7471 345.944C34.6991 345.853 34.6271 345.781 34.5311 345.728C34.4404 345.675 34.3151 345.648 34.1551 345.648C33.9951 345.648 33.8644 345.68 33.7631 345.744C33.6671 345.803 33.5898 345.883 33.5311 345.984C33.4778 346.08 33.4404 346.192 33.4191 346.32C33.4031 346.443 33.3951 346.568 33.3951 346.696V349H32.2591V346.68C32.2591 346.557 32.2564 346.437 32.2511 346.32C32.2458 346.197 32.2218 346.085 32.1791 345.984C32.1418 345.883 32.0751 345.803 31.9791 345.744C31.8884 345.68 31.7524 345.648 31.5711 345.648C31.5178 345.648 31.4458 345.661 31.3551 345.688C31.2698 345.709 31.1844 345.755 31.0991 345.824C31.0191 345.888 30.9498 345.984 30.8911 346.112C30.8324 346.235 30.8031 346.397 30.8031 346.6V349H29.6671V344.864Z" fill="black"/>
<path d="M25.7525 346.936C25.7525 347.101 25.7685 347.264 25.8005 347.424C25.8325 347.579 25.8858 347.72 25.9605 347.848C26.0405 347.971 26.1445 348.069 26.2725 348.144C26.4005 348.219 26.5605 348.256 26.7525 348.256C26.9445 348.256 27.1045 348.219 27.2325 348.144C27.3658 348.069 27.4698 347.971 27.5445 347.848C27.6245 347.72 27.6805 347.579 27.7125 347.424C27.7445 347.264 27.7605 347.101 27.7605 346.936C27.7605 346.771 27.7445 346.608 27.7125 346.448C27.6805 346.288 27.6245 346.147 27.5445 346.024C27.4698 345.901 27.3658 345.803 27.2325 345.728C27.1045 345.648 26.9445 345.608 26.7525 345.608C26.5605 345.608 26.4005 345.648 26.2725 345.728C26.1445 345.803 26.0405 345.901 25.9605 346.024C25.8858 346.147 25.8325 346.288 25.8005 346.448C25.7685 346.608 25.7525 346.771 25.7525 346.936ZM24.6165 346.936C24.6165 346.605 24.6671 346.307 24.7685 346.04C24.8698 345.768 25.0138 345.539 25.2005 345.352C25.3871 345.16 25.6111 345.013 25.8725 344.912C26.1338 344.805 26.4271 344.752 26.7525 344.752C27.0778 344.752 27.3711 344.805 27.6325 344.912C27.8991 345.013 28.1258 345.16 28.3125 345.352C28.4991 345.539 28.6431 345.768 28.7445 346.04C28.8458 346.307 28.8965 346.605 28.8965 346.936C28.8965 347.267 28.8458 347.565 28.7445 347.832C28.6431 348.099 28.4991 348.328 28.3125 348.52C28.1258 348.707 27.8991 348.851 27.6325 348.952C27.3711 349.053 27.0778 349.104 26.7525 349.104C26.4271 349.104 26.1338 349.053 25.8725 348.952C25.6111 348.851 25.3871 348.707 25.2005 348.52C25.0138 348.328 24.8698 348.099 24.7685 347.832C24.6671 347.565 24.6165 347.267 24.6165 346.936Z" fill="black"/>
<path d="M22.7899 346.92C22.7899 346.749 22.7739 346.587 22.7419 346.432C22.7099 346.272 22.6539 346.133 22.5739 346.016C22.4992 345.893 22.4005 345.795 22.2779 345.72C22.1552 345.645 22.0005 345.608 21.8139 345.608C21.6272 345.608 21.4699 345.645 21.3419 345.72C21.2139 345.795 21.1099 345.893 21.0299 346.016C20.9552 346.139 20.8992 346.28 20.8619 346.44C20.8299 346.595 20.8139 346.757 20.8139 346.928C20.8139 347.088 20.8325 347.248 20.8699 347.408C20.9072 347.568 20.9659 347.712 21.0459 347.84C21.1312 347.963 21.2352 348.064 21.3579 348.144C21.4859 348.219 21.6379 348.256 21.8139 348.256C22.0005 348.256 22.1552 348.219 22.2779 348.144C22.4059 348.069 22.5072 347.971 22.5819 347.848C22.6565 347.72 22.7099 347.576 22.7419 347.416C22.7739 347.256 22.7899 347.091 22.7899 346.92ZM22.8059 348.472H22.7899C22.6565 348.696 22.4805 348.859 22.2619 348.96C22.0485 349.056 21.8059 349.104 21.5339 349.104C21.2245 349.104 20.9525 349.045 20.7179 348.928C20.4832 348.805 20.2885 348.643 20.1339 348.44C19.9845 348.232 19.8699 347.995 19.7899 347.728C19.7152 347.461 19.6779 347.184 19.6779 346.896C19.6779 346.619 19.7152 346.352 19.7899 346.096C19.8699 345.835 19.9845 345.605 20.1339 345.408C20.2885 345.211 20.4805 345.053 20.7099 344.936C20.9392 344.813 21.2059 344.752 21.5099 344.752C21.7552 344.752 21.9872 344.805 22.2059 344.912C22.4299 345.013 22.6059 345.165 22.7339 345.368H22.7499V343.288H23.8859V349H22.8059V348.472Z" fill="black"/>
<path d="M15.7687 346.936C15.7687 346.76 15.75 346.592 15.7127 346.432C15.6754 346.272 15.6167 346.131 15.5367 346.008C15.4567 345.885 15.3554 345.789 15.2327 345.72C15.1154 345.645 14.9714 345.608 14.8007 345.608C14.6354 345.608 14.4914 345.645 14.3687 345.72C14.246 345.789 14.1447 345.885 14.0647 346.008C13.9847 346.131 13.926 346.272 13.8887 346.432C13.8514 346.592 13.8327 346.76 13.8327 346.936C13.8327 347.107 13.8514 347.272 13.8887 347.432C13.926 347.592 13.9847 347.733 14.0647 347.856C14.1447 347.979 14.246 348.077 14.3687 348.152C14.4914 348.221 14.6354 348.256 14.8007 348.256C14.9714 348.256 15.1154 348.221 15.2327 348.152C15.3554 348.077 15.4567 347.979 15.5367 347.856C15.6167 347.733 15.6754 347.592 15.7127 347.432C15.75 347.272 15.7687 347.107 15.7687 346.936ZM12.7367 343.288H13.8727V345.368H13.8887C14.0274 345.155 14.214 345 14.4487 344.904C14.6887 344.803 14.9367 344.752 15.1927 344.752C15.4007 344.752 15.606 344.795 15.8087 344.88C16.0114 344.965 16.1927 345.096 16.3527 345.272C16.518 345.448 16.6514 345.675 16.7527 345.952C16.854 346.224 16.9047 346.549 16.9047 346.928C16.9047 347.307 16.854 347.635 16.7527 347.912C16.6514 348.184 16.518 348.408 16.3527 348.584C16.1927 348.76 16.0114 348.891 15.8087 348.976C15.606 349.061 15.4007 349.104 15.1927 349.104C14.8887 349.104 14.6167 349.056 14.3767 348.96C14.1367 348.864 13.9554 348.701 13.8327 348.472H13.8167V349H12.7367V343.288Z" fill="black"/>
<path d="M11.8745 349H10.7945V348.424H10.7705C10.6265 348.664 10.4398 348.837 10.2105 348.944C9.98117 349.051 9.74651 349.104 9.50651 349.104C9.20251 349.104 8.95184 349.064 8.75451 348.984C8.56251 348.904 8.41051 348.792 8.29851 348.648C8.18651 348.499 8.10651 348.32 8.05851 348.112C8.01584 347.899 7.99451 347.664 7.99451 347.408V344.864H9.13051V347.2C9.13051 347.541 9.18384 347.797 9.29051 347.968C9.39717 348.133 9.58651 348.216 9.85851 348.216C10.1678 348.216 10.3918 348.125 10.5305 347.944C10.6692 347.757 10.7385 347.453 10.7385 347.032V344.864H11.8745V349Z" fill="black"/>
<path d="M3.77515 347.104C3.77515 347.296 3.80981 347.459 3.87915 347.592C3.94848 347.725 4.03915 347.835 4.15115 347.92C4.26848 348 4.40448 348.061 4.55915 348.104C4.71381 348.141 4.87381 348.16 5.03915 348.16C5.15115 348.16 5.27115 348.152 5.39915 348.136C5.52715 348.115 5.64715 348.077 5.75915 348.024C5.87115 347.971 5.96448 347.899 6.03915 347.808C6.11381 347.712 6.15115 347.592 6.15115 347.448C6.15115 347.293 6.10048 347.168 5.99915 347.072C5.90315 346.976 5.77515 346.896 5.61515 346.832C5.45515 346.768 5.27381 346.712 5.07115 346.664C4.86848 346.616 4.66315 346.563 4.45515 346.504C4.24181 346.451 4.03381 346.387 3.83115 346.312C3.62848 346.232 3.44715 346.131 3.28715 346.008C3.12715 345.885 2.99648 345.733 2.89515 345.552C2.79915 345.365 2.75115 345.141 2.75115 344.88C2.75115 344.587 2.81248 344.333 2.93515 344.12C3.06315 343.901 3.22848 343.72 3.43115 343.576C3.63381 343.432 3.86315 343.325 4.11915 343.256C4.37515 343.187 4.63115 343.152 4.88715 343.152C5.18581 343.152 5.47115 343.187 5.74315 343.256C6.02048 343.32 6.26581 343.427 6.47915 343.576C6.69248 343.725 6.86048 343.917 6.98315 344.152C7.11115 344.381 7.17515 344.661 7.17515 344.992H5.95915C5.94848 344.821 5.91115 344.68 5.84715 344.568C5.78848 344.456 5.70848 344.368 5.60715 344.304C5.50581 344.24 5.38848 344.195 5.25515 344.168C5.12715 344.141 4.98581 344.128 4.83115 344.128C4.72981 344.128 4.62848 344.139 4.52715 344.16C4.42581 344.181 4.33248 344.219 4.24715 344.272C4.16715 344.325 4.10048 344.392 4.04715 344.472C3.99381 344.552 3.96715 344.653 3.96715 344.776C3.96715 344.888 3.98848 344.979 4.03115 345.048C4.07381 345.117 4.15648 345.181 4.27915 345.24C4.40715 345.299 4.58048 345.357 4.79915 345.416C5.02315 345.475 5.31381 345.549 5.67115 345.64C5.77781 345.661 5.92448 345.701 6.11115 345.76C6.30315 345.813 6.49248 345.901 6.67915 346.024C6.86581 346.147 7.02581 346.312 7.15915 346.52C7.29781 346.723 7.36715 346.984 7.36715 347.304C7.36715 347.565 7.31648 347.808 7.21515 348.032C7.11381 348.256 6.96181 348.451 6.75915 348.616C6.56181 348.776 6.31381 348.901 6.01515 348.992C5.72181 349.083 5.38048 349.128 4.99115 349.128C4.67648 349.128 4.36981 349.088 4.07115 349.008C3.77781 348.933 3.51648 348.813 3.28715 348.648C3.06315 348.483 2.88448 348.272 2.75115 348.016C2.61781 347.76 2.55381 347.456 2.55915 347.104H3.77515Z" fill="black"/>
<path d="M2.42402 343.152C2.12002 343.717 1.89868 344.307 1.76002 344.92C1.62135 345.528 1.55202 346.147 1.55202 346.776C1.55202 347.416 1.61868 348.043 1.75202 348.656C1.89068 349.269 2.11202 349.867 2.41602 350.448H1.47202C1.13602 349.899 0.874682 349.32 0.688016 348.712C0.506682 348.104 0.416016 347.485 0.416016 346.856C0.416016 346.557 0.437349 346.245 0.480016 345.92C0.528016 345.589 0.594682 345.261 0.680016 344.936C0.770682 344.611 0.880016 344.296 1.00802 343.992C1.14135 343.688 1.29602 343.408 1.47202 343.152H2.42402Z" fill="black"/>
<path d="M135.27 329.86H136.69V333.69L138.48 331.83H140.16L138.21 333.73L140.38 337H138.66L137.24 334.69L136.69 335.22V337H135.27V329.86Z" fill="black"/>
<path d="M134.062 337H132.712V336.28H132.682C132.502 336.58 132.269 336.797 131.982 336.93C131.695 337.063 131.402 337.13 131.102 337.13C130.722 337.13 130.409 337.08 130.162 336.98C129.922 336.88 129.732 336.74 129.592 336.56C129.452 336.373 129.352 336.15 129.292 335.89C129.239 335.623 129.212 335.33 129.212 335.01V331.83H130.632V334.75C130.632 335.177 130.699 335.497 130.832 335.71C130.965 335.917 131.202 336.02 131.542 336.02C131.929 336.02 132.209 335.907 132.382 335.68C132.555 335.447 132.642 335.067 132.642 334.54V331.83H134.062V337Z" fill="black"/>
<path d="M126.489 335.46H128.059V337H126.489V335.46Z" fill="black"/>
<path d="M124.836 337H123.256L121.486 331.83H122.976L124.066 335.36H124.086L125.176 331.83H126.586L124.836 337Z" fill="black"/>
<path d="M117.122 334.42C117.122 334.627 117.142 334.83 117.182 335.03C117.222 335.223 117.289 335.4 117.382 335.56C117.482 335.713 117.612 335.837 117.772 335.93C117.932 336.023 118.132 336.07 118.372 336.07C118.612 336.07 118.812 336.023 118.972 335.93C119.139 335.837 119.269 335.713 119.362 335.56C119.462 335.4 119.532 335.223 119.572 335.03C119.612 334.83 119.632 334.627 119.632 334.42C119.632 334.213 119.612 334.01 119.572 333.81C119.532 333.61 119.462 333.433 119.362 333.28C119.269 333.127 119.139 333.003 118.972 332.91C118.812 332.81 118.612 332.76 118.372 332.76C118.132 332.76 117.932 332.81 117.772 332.91C117.612 333.003 117.482 333.127 117.382 333.28C117.289 333.433 117.222 333.61 117.182 333.81C117.142 334.01 117.122 334.213 117.122 334.42ZM115.702 334.42C115.702 334.007 115.766 333.633 115.892 333.3C116.019 332.96 116.199 332.673 116.432 332.44C116.666 332.2 116.946 332.017 117.272 331.89C117.599 331.757 117.966 331.69 118.372 331.69C118.779 331.69 119.146 331.757 119.472 331.89C119.806 332.017 120.089 332.2 120.322 332.44C120.556 332.673 120.736 332.96 120.862 333.3C120.989 333.633 121.052 334.007 121.052 334.42C121.052 334.833 120.989 335.207 120.862 335.54C120.736 335.873 120.556 336.16 120.322 336.4C120.089 336.633 119.806 336.813 119.472 336.94C119.146 337.067 118.779 337.13 118.372 337.13C117.966 337.13 117.599 337.067 117.272 336.94C116.946 336.813 116.666 336.633 116.432 336.4C116.199 336.16 116.019 335.873 115.892 335.54C115.766 335.207 115.702 334.833 115.702 334.42Z" fill="black"/>
<path d="M112.159 335.78C112.359 335.78 112.536 335.74 112.689 335.66C112.842 335.58 112.969 335.473 113.069 335.34C113.169 335.207 113.242 335.057 113.289 334.89C113.342 334.717 113.369 334.537 113.369 334.35C113.369 334.137 113.349 333.937 113.309 333.75C113.269 333.557 113.202 333.387 113.109 333.24C113.016 333.093 112.892 332.977 112.739 332.89C112.586 332.803 112.392 332.76 112.159 332.76C111.959 332.76 111.786 332.8 111.639 332.88C111.499 332.96 111.379 333.07 111.279 333.21C111.186 333.343 111.116 333.5 111.069 333.68C111.029 333.853 111.009 334.037 111.009 334.23C111.009 334.417 111.026 334.603 111.059 334.79C111.099 334.97 111.162 335.133 111.249 335.28C111.342 335.427 111.462 335.547 111.609 335.64C111.756 335.733 111.939 335.78 112.159 335.78ZM114.719 336.67C114.719 336.877 114.689 337.113 114.629 337.38C114.576 337.647 114.456 337.893 114.269 338.12C114.082 338.353 113.812 338.55 113.459 338.71C113.106 338.87 112.632 338.95 112.039 338.95C111.786 338.95 111.526 338.917 111.259 338.85C110.999 338.79 110.759 338.693 110.539 338.56C110.326 338.427 110.146 338.253 109.999 338.04C109.859 337.833 109.779 337.583 109.759 337.29H111.169C111.236 337.557 111.366 337.74 111.559 337.84C111.752 337.947 111.976 338 112.229 338C112.629 338 112.919 337.88 113.099 337.64C113.286 337.4 113.376 337.097 113.369 336.73V336.05H113.349C113.196 336.323 112.976 336.527 112.689 336.66C112.409 336.787 112.112 336.85 111.799 336.85C111.412 336.85 111.079 336.783 110.799 336.65C110.519 336.51 110.289 336.323 110.109 336.09C109.929 335.85 109.796 335.573 109.709 335.26C109.629 334.94 109.589 334.603 109.589 334.25C109.589 333.917 109.636 333.597 109.729 333.29C109.829 332.977 109.972 332.703 110.159 332.47C110.346 332.23 110.576 332.04 110.849 331.9C111.129 331.76 111.449 331.69 111.809 331.69C112.149 331.69 112.446 331.753 112.699 331.88C112.959 332.007 113.176 332.22 113.349 332.52H113.369V331.83H114.719V336.67Z" fill="black"/>
<path d="M107.026 335.46H108.596V337H107.026V335.46Z" fill="black"/>
<path d="M105.072 337.64C104.919 338.06 104.706 338.36 104.432 338.54C104.159 338.72 103.779 338.81 103.292 338.81C103.146 338.81 102.999 338.803 102.852 338.79C102.712 338.783 102.569 338.773 102.422 338.76V337.59C102.556 337.603 102.692 337.617 102.832 337.63C102.972 337.643 103.112 337.647 103.252 337.64C103.439 337.62 103.576 337.547 103.662 337.42C103.756 337.293 103.802 337.153 103.802 337C103.802 336.887 103.782 336.78 103.742 336.68L101.932 331.83H103.442L104.612 335.37H104.632L105.762 331.83H107.232L105.072 337.64Z" fill="black"/>
<path d="M100.807 331.83H101.847V332.78H100.807V335.34C100.807 335.58 100.847 335.74 100.927 335.82C101.007 335.9 101.167 335.94 101.407 335.94C101.487 335.94 101.564 335.937 101.637 335.93C101.71 335.923 101.78 335.913 101.847 335.9V337C101.727 337.02 101.594 337.033 101.447 337.04C101.3 337.047 101.157 337.05 101.017 337.05C100.797 337.05 100.587 337.033 100.387 337C100.194 336.973 100.02 336.917 99.8669 336.83C99.7202 336.743 99.6035 336.62 99.5169 336.46C99.4302 336.3 99.3869 336.09 99.3869 335.83V332.78H98.5269V331.83H99.3869V330.28H100.807V331.83Z" fill="black"/>
<path d="M97.8886 331.03H96.4686V329.86H97.8886V331.03ZM96.4686 331.83H97.8886V337H96.4686V331.83Z" fill="black"/>
<path d="M93.8905 329.86H95.3105V337H93.8905V329.86Z" fill="black"/>
<path d="M88.0484 333.42C88.0684 333.087 88.1518 332.81 88.2984 332.59C88.4451 332.37 88.6318 332.193 88.8584 332.06C89.0851 331.927 89.3384 331.833 89.6184 331.78C89.9051 331.72 90.1918 331.69 90.4784 331.69C90.7384 331.69 91.0018 331.71 91.2684 331.75C91.5351 331.783 91.7784 331.853 91.9984 331.96C92.2184 332.067 92.3984 332.217 92.5384 332.41C92.6784 332.597 92.7484 332.847 92.7484 333.16V335.85C92.7484 336.083 92.7618 336.307 92.7884 336.52C92.8151 336.733 92.8618 336.893 92.9284 337H91.4884C91.4618 336.92 91.4384 336.84 91.4184 336.76C91.4051 336.673 91.3951 336.587 91.3884 336.5C91.1618 336.733 90.8951 336.897 90.5884 336.99C90.2818 337.083 89.9684 337.13 89.6484 337.13C89.4018 337.13 89.1718 337.1 88.9584 337.04C88.7451 336.98 88.5584 336.887 88.3984 336.76C88.2384 336.633 88.1118 336.473 88.0184 336.28C87.9318 336.087 87.8884 335.857 87.8884 335.59C87.8884 335.297 87.9384 335.057 88.0384 334.87C88.1451 334.677 88.2784 334.523 88.4384 334.41C88.6051 334.297 88.7918 334.213 88.9984 334.16C89.2118 334.1 89.4251 334.053 89.6384 334.02C89.8518 333.987 90.0618 333.96 90.2684 333.94C90.4751 333.92 90.6584 333.89 90.8184 333.85C90.9784 333.81 91.1051 333.753 91.1984 333.68C91.2918 333.6 91.3351 333.487 91.3284 333.34C91.3284 333.187 91.3018 333.067 91.2484 332.98C91.2018 332.887 91.1351 332.817 91.0484 332.77C90.9684 332.717 90.8718 332.683 90.7584 332.67C90.6518 332.65 90.5351 332.64 90.4084 332.64C90.1284 332.64 89.9084 332.7 89.7484 332.82C89.5884 332.94 89.4951 333.14 89.4684 333.42H88.0484ZM91.3284 334.47C91.2684 334.523 91.1918 334.567 91.0984 334.6C91.0118 334.627 90.9151 334.65 90.8084 334.67C90.7084 334.69 90.6018 334.707 90.4884 334.72C90.3751 334.733 90.2618 334.75 90.1484 334.77C90.0418 334.79 89.9351 334.817 89.8284 334.85C89.7284 334.883 89.6384 334.93 89.5584 334.99C89.4851 335.043 89.4251 335.113 89.3784 335.2C89.3318 335.287 89.3084 335.397 89.3084 335.53C89.3084 335.657 89.3318 335.763 89.3784 335.85C89.4251 335.937 89.4884 336.007 89.5684 336.06C89.6484 336.107 89.7418 336.14 89.8484 336.16C89.9551 336.18 90.0651 336.19 90.1784 336.19C90.4584 336.19 90.6751 336.143 90.8284 336.05C90.9818 335.957 91.0951 335.847 91.1684 335.72C91.2418 335.587 91.2851 335.453 91.2984 335.32C91.3184 335.187 91.3284 335.08 91.3284 335V334.47Z" fill="black"/>
<path d="M87.0307 337H85.6807V336.28H85.6507C85.4707 336.58 85.2373 336.797 84.9507 336.93C84.664 337.063 84.3707 337.13 84.0707 337.13C83.6907 337.13 83.3773 337.08 83.1307 336.98C82.8907 336.88 82.7007 336.74 82.5607 336.56C82.4207 336.373 82.3207 336.15 82.2607 335.89C82.2073 335.623 82.1807 335.33 82.1807 335.01V331.83H83.6007V334.75C83.6007 335.177 83.6673 335.497 83.8007 335.71C83.934 335.917 84.1707 336.02 84.5107 336.02C84.8973 336.02 85.1773 335.907 85.3507 335.68C85.524 335.447 85.6107 335.067 85.6107 334.54V331.83H87.0307V337Z" fill="black"/>
<path d="M77.2674 334.42C77.2674 334.627 77.2874 334.83 77.3274 335.03C77.3674 335.223 77.4341 335.4 77.5274 335.56C77.6274 335.713 77.7541 335.837 77.9074 335.93C78.0674 336.023 78.2641 336.07 78.4974 336.07C78.7307 336.07 78.9241 336.027 79.0774 335.94C79.2374 335.847 79.3641 335.727 79.4574 335.58C79.5574 335.427 79.6274 335.253 79.6674 335.06C79.7141 334.86 79.7374 334.653 79.7374 334.44C79.7374 334.24 79.7141 334.04 79.6674 333.84C79.6274 333.64 79.5607 333.46 79.4674 333.3C79.3741 333.14 79.2474 333.01 79.0874 332.91C78.9341 332.81 78.7474 332.76 78.5274 332.76C78.2941 332.76 78.0974 332.807 77.9374 332.9C77.7774 332.993 77.6474 333.12 77.5474 333.28C77.4474 333.433 77.3741 333.61 77.3274 333.81C77.2874 334.003 77.2674 334.207 77.2674 334.42ZM81.1074 338.81H79.6874V336.35H79.6674C79.5007 336.63 79.2674 336.83 78.9674 336.95C78.6674 337.07 78.3574 337.13 78.0374 337.13C77.7974 337.13 77.5474 337.087 77.2874 337C77.0341 336.907 76.8007 336.757 76.5874 336.55C76.3741 336.337 76.1974 336.06 76.0574 335.72C75.9174 335.373 75.8474 334.95 75.8474 334.45C75.8474 334.097 75.8941 333.753 75.9874 333.42C76.0807 333.087 76.2241 332.793 76.4174 332.54C76.6107 332.28 76.8507 332.073 77.1374 331.92C77.4307 331.767 77.7741 331.69 78.1674 331.69C78.4874 331.69 78.7874 331.753 79.0674 331.88C79.3541 332 79.5774 332.203 79.7374 332.49H79.7574V331.83H81.1074V338.81Z" fill="black"/>
<path d="M71.9851 333.66H74.9951V334.88H71.9851V333.66Z" fill="black"/>
<path d="M68.6553 331.83H70.0053V332.79H70.0253C70.0919 332.63 70.1819 332.483 70.2953 332.35C70.4086 332.21 70.5386 332.093 70.6853 332C70.8319 331.9 70.9886 331.823 71.1553 331.77C71.3219 331.717 71.4953 331.69 71.6753 331.69C71.7686 331.69 71.8719 331.707 71.9853 331.74V333.06C71.9186 333.047 71.8386 333.037 71.7453 333.03C71.6519 333.017 71.5619 333.01 71.4753 333.01C71.2153 333.01 70.9953 333.053 70.8153 333.14C70.6353 333.227 70.4886 333.347 70.3753 333.5C70.2686 333.647 70.1919 333.82 70.1453 334.02C70.0986 334.22 70.0753 334.437 70.0753 334.67V337H68.6553V331.83Z" fill="black"/>
<path d="M67.5371 331.03H66.1171V329.86H67.5371V331.03ZM66.1171 331.83H67.5371V337H66.1171V331.83Z" fill="black"/>
<path d="M60.2749 333.42C60.2949 333.087 60.3782 332.81 60.5249 332.59C60.6715 332.37 60.8582 332.193 61.0849 332.06C61.3115 331.927 61.5649 331.833 61.8449 331.78C62.1315 331.72 62.4182 331.69 62.7049 331.69C62.9649 331.69 63.2282 331.71 63.4949 331.75C63.7615 331.783 64.0049 331.853 64.2249 331.96C64.4449 332.067 64.6249 332.217 64.7649 332.41C64.9049 332.597 64.9749 332.847 64.9749 333.16V335.85C64.9749 336.083 64.9882 336.307 65.0149 336.52C65.0415 336.733 65.0882 336.893 65.1549 337H63.7149C63.6882 336.92 63.6649 336.84 63.6449 336.76C63.6315 336.673 63.6215 336.587 63.6149 336.5C63.3882 336.733 63.1215 336.897 62.8149 336.99C62.5082 337.083 62.1949 337.13 61.8749 337.13C61.6282 337.13 61.3982 337.1 61.1849 337.04C60.9715 336.98 60.7849 336.887 60.6249 336.76C60.4649 336.633 60.3382 336.473 60.2449 336.28C60.1582 336.087 60.1149 335.857 60.1149 335.59C60.1149 335.297 60.1649 335.057 60.2649 334.87C60.3715 334.677 60.5049 334.523 60.6649 334.41C60.8315 334.297 61.0182 334.213 61.2249 334.16C61.4382 334.1 61.6515 334.053 61.8649 334.02C62.0782 333.987 62.2882 333.96 62.4949 333.94C62.7015 333.92 62.8849 333.89 63.0449 333.85C63.2049 333.81 63.3315 333.753 63.4249 333.68C63.5182 333.6 63.5615 333.487 63.5549 333.34C63.5549 333.187 63.5282 333.067 63.4749 332.98C63.4282 332.887 63.3615 332.817 63.2749 332.77C63.1949 332.717 63.0982 332.683 62.9849 332.67C62.8782 332.65 62.7615 332.64 62.6349 332.64C62.3549 332.64 62.1349 332.7 61.9749 332.82C61.8149 332.94 61.7215 333.14 61.6949 333.42H60.2749ZM63.5549 334.47C63.4949 334.523 63.4182 334.567 63.3249 334.6C63.2382 334.627 63.1415 334.65 63.0349 334.67C62.9349 334.69 62.8282 334.707 62.7149 334.72C62.6015 334.733 62.4882 334.75 62.3749 334.77C62.2682 334.79 62.1615 334.817 62.0549 334.85C61.9549 334.883 61.8649 334.93 61.7849 334.99C61.7115 335.043 61.6515 335.113 61.6049 335.2C61.5582 335.287 61.5349 335.397 61.5349 335.53C61.5349 335.657 61.5582 335.763 61.6049 335.85C61.6515 335.937 61.7149 336.007 61.7949 336.06C61.8749 336.107 61.9682 336.14 62.0749 336.16C62.1815 336.18 62.2915 336.19 62.4049 336.19C62.6849 336.19 62.9015 336.143 63.0549 336.05C63.2082 335.957 63.3215 335.847 63.3949 335.72C63.4682 335.587 63.5115 335.453 63.5249 335.32C63.5449 335.187 63.5549 335.08 63.5549 335V334.47Z" fill="black"/>
<path d="M56.2527 333.66H59.2627V334.88H56.2527V333.66Z" fill="black"/>
<path d="M53.7245 329.86H55.1445V337H53.7245V329.86Z" fill="black"/>
<path d="M47.8823 333.42C47.9023 333.087 47.9856 332.81 48.1323 332.59C48.279 332.37 48.4656 332.193 48.6923 332.06C48.919 331.927 49.1723 331.833 49.4523 331.78C49.739 331.72 50.0256 331.69 50.3123 331.69C50.5723 331.69 50.8356 331.71 51.1023 331.75C51.369 331.783 51.6123 331.853 51.8323 331.96C52.0523 332.067 52.2323 332.217 52.3723 332.41C52.5123 332.597 52.5823 332.847 52.5823 333.16V335.85C52.5823 336.083 52.5956 336.307 52.6223 336.52C52.649 336.733 52.6956 336.893 52.7623 337H51.3223C51.2956 336.92 51.2723 336.84 51.2523 336.76C51.239 336.673 51.229 336.587 51.2223 336.5C50.9956 336.733 50.729 336.897 50.4223 336.99C50.1156 337.083 49.8023 337.13 49.4823 337.13C49.2356 337.13 49.0056 337.1 48.7923 337.04C48.579 336.98 48.3923 336.887 48.2323 336.76C48.0723 336.633 47.9456 336.473 47.8523 336.28C47.7656 336.087 47.7223 335.857 47.7223 335.59C47.7223 335.297 47.7723 335.057 47.8723 334.87C47.979 334.677 48.1123 334.523 48.2723 334.41C48.439 334.297 48.6256 334.213 48.8323 334.16C49.0456 334.1 49.259 334.053 49.4723 334.02C49.6856 333.987 49.8956 333.96 50.1023 333.94C50.309 333.92 50.4923 333.89 50.6523 333.85C50.8123 333.81 50.939 333.753 51.0323 333.68C51.1256 333.6 51.169 333.487 51.1623 333.34C51.1623 333.187 51.1356 333.067 51.0823 332.98C51.0356 332.887 50.969 332.817 50.8823 332.77C50.8023 332.717 50.7056 332.683 50.5923 332.67C50.4856 332.65 50.369 332.64 50.2423 332.64C49.9623 332.64 49.7423 332.7 49.5823 332.82C49.4223 332.94 49.329 333.14 49.3023 333.42H47.8823ZM51.1623 334.47C51.1023 334.523 51.0256 334.567 50.9323 334.6C50.8456 334.627 50.749 334.65 50.6423 334.67C50.5423 334.69 50.4356 334.707 50.3223 334.72C50.209 334.733 50.0956 334.75 49.9823 334.77C49.8756 334.79 49.769 334.817 49.6623 334.85C49.5623 334.883 49.4723 334.93 49.3923 334.99C49.319 335.043 49.259 335.113 49.2123 335.2C49.1656 335.287 49.1423 335.397 49.1423 335.53C49.1423 335.657 49.1656 335.763 49.2123 335.85C49.259 335.937 49.3223 336.007 49.4023 336.06C49.4823 336.107 49.5756 336.14 49.6823 336.16C49.789 336.18 49.899 336.19 50.0123 336.19C50.2923 336.19 50.509 336.143 50.6623 336.05C50.8156 335.957 50.929 335.847 51.0023 335.72C51.0756 335.587 51.119 335.453 51.1323 335.32C51.1523 335.187 51.1623 335.08 51.1623 335V334.47Z" fill="black"/>
<path d="M45.7202 333.65C45.6268 333.057 45.2768 332.76 44.6702 332.76C44.4435 332.76 44.2535 332.813 44.1002 332.92C43.9468 333.02 43.8202 333.153 43.7202 333.32C43.6268 333.48 43.5602 333.66 43.5202 333.86C43.4802 334.053 43.4602 334.247 43.4602 334.44C43.4602 334.627 43.4802 334.817 43.5202 335.01C43.5602 335.203 43.6235 335.38 43.7102 335.54C43.8035 335.693 43.9268 335.82 44.0802 335.92C44.2335 336.02 44.4202 336.07 44.6402 336.07C44.9802 336.07 45.2402 335.977 45.4202 335.79C45.6068 335.597 45.7235 335.34 45.7702 335.02H47.1402C47.0468 335.707 46.7802 336.23 46.3402 336.59C45.9002 336.95 45.3368 337.13 44.6502 337.13C44.2635 337.13 43.9068 337.067 43.5802 336.94C43.2602 336.807 42.9868 336.623 42.7602 336.39C42.5335 336.157 42.3568 335.88 42.2302 335.56C42.1035 335.233 42.0402 334.877 42.0402 334.49C42.0402 334.09 42.0968 333.72 42.2102 333.38C42.3302 333.033 42.5035 332.737 42.7302 332.49C42.9568 332.237 43.2335 332.04 43.5602 331.9C43.8868 331.76 44.2602 331.69 44.6802 331.69C44.9868 331.69 45.2802 331.73 45.5602 331.81C45.8468 331.89 46.1002 332.013 46.3202 332.18C46.5468 332.34 46.7302 332.543 46.8702 332.79C47.0102 333.03 47.0902 333.317 47.1102 333.65H45.7202Z" fill="black"/>
<path d="M37.3469 334.42C37.3469 334.627 37.3669 334.83 37.4069 335.03C37.4469 335.223 37.5135 335.4 37.6069 335.56C37.7069 335.713 37.8369 335.837 37.9969 335.93C38.1569 336.023 38.3569 336.07 38.5969 336.07C38.8369 336.07 39.0369 336.023 39.1969 335.93C39.3635 335.837 39.4935 335.713 39.5869 335.56C39.6869 335.4 39.7569 335.223 39.7969 335.03C39.8369 334.83 39.8569 334.627 39.8569 334.42C39.8569 334.213 39.8369 334.01 39.7969 333.81C39.7569 333.61 39.6869 333.433 39.5869 333.28C39.4935 333.127 39.3635 333.003 39.1969 332.91C39.0369 332.81 38.8369 332.76 38.5969 332.76C38.3569 332.76 38.1569 332.81 37.9969 332.91C37.8369 333.003 37.7069 333.127 37.6069 333.28C37.5135 333.433 37.4469 333.61 37.4069 333.81C37.3669 334.01 37.3469 334.213 37.3469 334.42ZM35.9269 334.42C35.9269 334.007 35.9902 333.633 36.1169 333.3C36.2435 332.96 36.4235 332.673 36.6569 332.44C36.8902 332.2 37.1702 332.017 37.4969 331.89C37.8235 331.757 38.1902 331.69 38.5969 331.69C39.0035 331.69 39.3702 331.757 39.6969 331.89C40.0302 332.017 40.3135 332.2 40.5469 332.44C40.7802 332.673 40.9602 332.96 41.0869 333.3C41.2135 333.633 41.2769 334.007 41.2769 334.42C41.2769 334.833 41.2135 335.207 41.0869 335.54C40.9602 335.873 40.7802 336.16 40.5469 336.4C40.3135 336.633 40.0302 336.813 39.6969 336.94C39.3702 337.067 39.0035 337.13 38.5969 337.13C38.1902 337.13 37.8235 337.067 37.4969 336.94C37.1702 336.813 36.8902 336.633 36.6569 336.4C36.4235 336.16 36.2435 335.873 36.1169 335.54C35.9902 335.207 35.9269 334.833 35.9269 334.42Z" fill="black"/>
<path d="M33.5487 329.86H34.9687V337H33.5487V329.86Z" fill="black"/>
<path d="M29.4265 333.66H32.4365V334.88H29.4265V333.66Z" fill="black"/>
<path d="M23.8243 329.86H25.2443V333.69L27.0343 331.83H28.7143L26.7643 333.73L28.9343 337H27.2143L25.7943 334.69L25.2443 335.22V337H23.8243V329.86Z" fill="black"/>
<path d="M21.4721 333.65C21.3788 333.057 21.0288 332.76 20.4221 332.76C20.1954 332.76 20.0054 332.813 19.8521 332.92C19.6988 333.02 19.5721 333.153 19.4721 333.32C19.3788 333.48 19.3121 333.66 19.2721 333.86C19.2321 334.053 19.2121 334.247 19.2121 334.44C19.2121 334.627 19.2321 334.817 19.2721 335.01C19.3121 335.203 19.3754 335.38 19.4621 335.54C19.5554 335.693 19.6788 335.82 19.8321 335.92C19.9854 336.02 20.1721 336.07 20.3921 336.07C20.7321 336.07 20.9921 335.977 21.1721 335.79C21.3588 335.597 21.4754 335.34 21.5221 335.02H22.8921C22.7988 335.707 22.5321 336.23 22.0921 336.59C21.6521 336.95 21.0888 337.13 20.4021 337.13C20.0154 337.13 19.6588 337.067 19.3321 336.94C19.0121 336.807 18.7388 336.623 18.5121 336.39C18.2854 336.157 18.1088 335.88 17.9821 335.56C17.8554 335.233 17.7921 334.877 17.7921 334.49C17.7921 334.09 17.8488 333.72 17.9621 333.38C18.0821 333.033 18.2554 332.737 18.4821 332.49C18.7088 332.237 18.9854 332.04 19.3121 331.9C19.6388 331.76 20.0121 331.69 20.4321 331.69C20.7388 331.69 21.0321 331.73 21.3121 331.81C21.5988 331.89 21.8521 332.013 22.0721 332.18C22.2988 332.34 22.4821 332.543 22.6221 332.79C22.7621 333.03 22.8421 333.317 22.8621 333.65H21.4721Z" fill="black"/>
<path d="M15.69 333.86C15.6233 333.5 15.5033 333.227 15.33 333.04C15.1633 332.853 14.9066 332.76 14.56 332.76C14.3333 332.76 14.1433 332.8 13.99 332.88C13.8433 332.953 13.7233 333.047 13.63 333.16C13.5433 333.273 13.48 333.393 13.44 333.52C13.4066 333.647 13.3866 333.76 13.38 333.86H15.69ZM13.38 334.76C13.4 335.22 13.5166 335.553 13.73 335.76C13.9433 335.967 14.25 336.07 14.65 336.07C14.9366 336.07 15.1833 336 15.39 335.86C15.5966 335.713 15.7233 335.56 15.77 335.4H17.02C16.82 336.02 16.5133 336.463 16.1 336.73C15.6866 336.997 15.1866 337.13 14.6 337.13C14.1933 337.13 13.8266 337.067 13.5 336.94C13.1733 336.807 12.8966 336.62 12.67 336.38C12.4433 336.14 12.2666 335.853 12.14 335.52C12.02 335.187 11.96 334.82 11.96 334.42C11.96 334.033 12.0233 333.673 12.15 333.34C12.2766 333.007 12.4566 332.72 12.69 332.48C12.9233 332.233 13.2 332.04 13.52 331.9C13.8466 331.76 14.2066 331.69 14.6 331.69C15.04 331.69 15.4233 331.777 15.75 331.95C16.0766 332.117 16.3433 332.343 16.55 332.63C16.7633 332.917 16.9166 333.243 17.01 333.61C17.1033 333.977 17.1366 334.36 17.11 334.76H13.38Z" fill="black"/>
<path d="M6.28223 329.86H7.70223V332.55H7.73223C7.91223 332.25 8.14223 332.033 8.42223 331.9C8.70223 331.76 8.97556 331.69 9.24223 331.69C9.62223 331.69 9.93223 331.743 10.1722 331.85C10.4189 331.95 10.6122 332.093 10.7522 332.28C10.8922 332.46 10.9889 332.683 11.0422 332.95C11.1022 333.21 11.1322 333.5 11.1322 333.82V337H9.71223V334.08C9.71223 333.653 9.64556 333.337 9.51223 333.13C9.37889 332.917 9.14223 332.81 8.80223 332.81C8.41556 332.81 8.13556 332.927 7.96223 333.16C7.78889 333.387 7.70223 333.763 7.70223 334.29V337H6.28223V329.86Z" fill="black"/>
<path d="M4.06001 333.65C3.96667 333.057 3.61667 332.76 3.01 332.76C2.78334 332.76 2.59334 332.813 2.44 332.92C2.28667 333.02 2.16001 333.153 2.06001 333.32C1.96667 333.48 1.9 333.66 1.86 333.86C1.82 334.053 1.8 334.247 1.8 334.44C1.8 334.627 1.82 334.817 1.86 335.01C1.9 335.203 1.96334 335.38 2.05001 335.54C2.14334 335.693 2.26667 335.82 2.42 335.92C2.57334 336.02 2.76 336.07 2.98 336.07C3.32 336.07 3.58 335.977 3.76 335.79C3.94667 335.597 4.06334 335.34 4.11 335.02H5.48001C5.38667 335.707 5.12001 336.23 4.68001 336.59C4.24 336.95 3.67667 337.13 2.99001 337.13C2.60334 337.13 2.24667 337.067 1.92 336.94C1.60001 336.807 1.32667 336.623 1.1 336.39C0.873338 336.157 0.696672 335.88 0.570005 335.56C0.443338 335.233 0.380005 334.877 0.380005 334.49C0.380005 334.09 0.436672 333.72 0.550005 333.38C0.670005 333.033 0.843338 332.737 1.07 332.49C1.29667 332.237 1.57334 332.04 1.9 331.9C2.22667 331.76 2.6 331.69 3.02 331.69C3.32667 331.69 3.62 331.73 3.9 331.81C4.18667 331.89 4.44001 332.013 4.66001 332.18C4.88667 332.34 5.07 332.543 5.21 332.79C5.35 333.03 5.43001 333.317 5.45001 333.65H4.06001Z" fill="black"/>
</svg>
